<svg xmlns="http://www.w3.org/2000/svg" xmlns:xlink="http://www.w3.org/1999/xlink" width="480" zoomAndPan="magnify" viewBox="0 0 360 359.999987" height="480" preserveAspectRatio="xMidYMid meet" version="1.0"><defs><clipPath id="0a940dcde0"><path d="M 1.289062 1.289062 L 359.039062 1.289062 L 359.039062 359.039062 L 1.289062 359.039062 Z M 1.289062 1.289062 " clip-rule="nonzero"/></clipPath><clipPath id="c506694a7f"><path d="M 240 188 L 254 188 L 254 202 L 240 202 Z M 240 188 " clip-rule="nonzero"/></clipPath><clipPath id="2948ce3933"><path d="M 240.710938 196.199219 L 248.660156 188.804688 L 253.273438 193.761719 L 245.324219 201.160156 Z M 240.710938 196.199219 " clip-rule="nonzero"/></clipPath></defs><path fill="#000000" d="M 184.390625 96.136719 L 202.691406 99.871094 L 167.769531 264.1875 L 149.476562 260.453125 L 184.390625 96.136719 M 251.023438 180.164062 L 217.507812 146.644531 L 217.507812 120.226562 L 277.441406 180.164062 L 217.507812 240.007812 L 217.507812 213.589844 L 251.023438 180.164062 M 82.929688 180.164062 L 142.863281 120.226562 L 142.863281 146.644531 L 109.300781 180.164062 L 142.820312 213.589844 L 142.820312 240.007812 Z M 82.929688 180.164062 " fill-opacity="1" fill-rule="nonzero"/><g clip-path="url(#0a940dcde0)"><path fill="#000000" d="M 180.164062 359.039062 C 81.535156 359.039062 1.289062 278.792969 1.289062 180.164062 C 1.289062 81.535156 81.535156 1.289062 180.164062 1.289062 C 278.792969 1.289062 359.039062 81.535156 359.039062 180.164062 C 359.039062 278.792969 278.792969 359.039062 180.164062 359.039062 Z M 180.164062 23.304688 C 93.667969 23.304688 23.304688 93.667969 23.304688 180.164062 C 23.304688 266.65625 93.667969 337.023438 180.164062 337.023438 C 266.65625 337.023438 337.023438 266.65625 337.023438 180.164062 C 337.023438 93.667969 266.65625 23.304688 180.164062 23.304688 Z M 180.164062 23.304688 " fill-opacity="1" fill-rule="nonzero"/></g><g clip-path="url(#c506694a7f)"><g clip-path="url(#2948ce3933)"><path fill="#000000" d="M 240.710938 196.199219 L 248.652344 188.808594 L 253.269531 193.769531 L 245.324219 201.160156 Z M 240.710938 196.199219 " fill-opacity="1" fill-rule="nonzero"/></g></g></svg>