<svg xmlns="http://www.w3.org/2000/svg" xmlns:xlink="http://www.w3.org/1999/xlink" width="480" zoomAndPan="magnify" viewBox="0 0 360 359.999987" height="480" preserveAspectRatio="xMidYMid meet" version="1.0"><defs><clipPath id="fd8dcc02f9"><path d="M 1.289062 1.289062 L 359.039062 1.289062 L 359.039062 359.039062 L 1.289062 359.039062 Z M 1.289062 1.289062 " clip-rule="nonzero"/></clipPath><clipPath id="58d9095d3a"><path d="M 225 173 L 239 173 L 239 187 L 225 187 Z M 225 173 " clip-rule="nonzero"/></clipPath><clipPath id="012f18d23a"><path d="M 225.726562 181.214844 L 233.675781 173.820312 L 238.289062 178.777344 L 230.339844 186.175781 Z M 225.726562 181.214844 " clip-rule="nonzero"/></clipPath></defs><g clip-path="url(#fd8dcc02f9)"><path fill="#000000" d="M 180.164062 1.289062 C 81.515625 1.289062 1.289062 81.515625 1.289062 180.164062 C 1.289062 278.8125 81.515625 359.039062 180.164062 359.039062 C 278.8125 359.039062 359.039062 278.8125 359.039062 180.164062 C 359.039062 81.515625 278.8125 1.289062 180.164062 1.289062 Z M 180.164062 346.488281 C 88.320312 346.488281 13.835938 272.003906 13.835938 180.164062 C 13.835938 88.320312 88.320312 13.835938 180.164062 13.835938 C 272.003906 13.835938 346.488281 88.320312 346.488281 180.164062 C 346.488281 272.003906 272.003906 346.488281 180.164062 346.488281 Z M 180.164062 346.488281 " fill-opacity="1" fill-rule="nonzero"/></g><path fill="#000000" d="M 270.222656 122.539062 L 209.664062 180.164062 L 270.222656 237.785156 C 271.84375 235.570312 272.882812 233.105469 273.335938 230.398438 L 273.335938 129.925781 C 272.882812 127.21875 271.84375 124.753906 270.222656 122.539062 Z M 270.222656 122.539062 " fill-opacity="1" fill-rule="nonzero"/><path fill="#000000" d="M 180.164062 208.238281 L 155.246094 184.523438 L 94.730469 242.101562 C 96.121094 243.019531 97.617188 243.714844 99.21875 244.195312 C 100.816406 244.671875 102.449219 244.90625 104.117188 244.90625 L 256.207031 244.90625 C 257.875 244.90625 259.507812 244.671875 261.105469 244.195312 C 262.707031 243.714844 264.203125 243.019531 265.59375 242.101562 L 205.082031 184.523438 Z M 180.164062 208.238281 " fill-opacity="1" fill-rule="nonzero"/><path fill="#000000" d="M 90.101562 122.539062 C 88.480469 124.753906 87.441406 127.21875 86.988281 129.925781 L 86.988281 230.398438 C 87.441406 233.105469 88.480469 235.570312 90.101562 237.785156 L 150.660156 180.164062 Z M 90.101562 122.539062 " fill-opacity="1" fill-rule="nonzero"/><path fill="#000000" d="M 155.246094 175.800781 L 180.164062 199.5625 L 265.59375 118.222656 C 264.203125 117.304688 262.707031 116.609375 261.105469 116.128906 C 259.507812 115.652344 257.875 115.417969 256.207031 115.421875 L 104.117188 115.421875 C 102.449219 115.417969 100.816406 115.652344 99.21875 116.128906 C 97.617188 116.609375 96.121094 117.304688 94.730469 118.222656 Z M 155.246094 175.800781 " fill-opacity="1" fill-rule="nonzero"/><g clip-path="url(#58d9095d3a)"><g clip-path="url(#012f18d23a)"><path fill="#000000" d="M 225.726562 181.214844 L 233.667969 173.824219 L 238.285156 178.785156 L 230.339844 186.175781 Z M 225.726562 181.214844 " fill-opacity="1" fill-rule="nonzero"/></g></g></svg>