<svg xmlns="http://www.w3.org/2000/svg" xmlns:xlink="http://www.w3.org/1999/xlink" width="480" zoomAndPan="magnify" viewBox="0 0 360 359.999987" height="480" preserveAspectRatio="xMidYMid meet" version="1.0"><defs><clipPath id="fe59b82fd2"><path d="M 4.539062 4.539062 L 354.789062 4.539062 L 354.789062 354.789062 L 4.539062 354.789062 Z M 4.539062 4.539062 " clip-rule="nonzero"/></clipPath><clipPath id="a01e345ed2"><path d="M 261 263 L 274 263 L 274 276 L 261 276 Z M 261 263 " clip-rule="nonzero"/></clipPath><clipPath id="2bb29a51fe"><path d="M 261.402344 270.46875 L 269.351562 263.074219 L 273.964844 268.03125 L 266.019531 275.429688 Z M 261.402344 270.46875 " clip-rule="nonzero"/></clipPath></defs><path fill="#000000" d="M 264.8125 205.390625 C 264.285156 204.867188 263.734375 204.371094 263.160156 203.902344 C 262.582031 203.433594 261.988281 202.996094 261.367188 202.585938 C 260.75 202.175781 260.113281 201.796875 259.460938 201.445312 C 258.804688 201.097656 258.132812 200.785156 257.449219 200.5 C 256.761719 200.21875 256.0625 199.96875 255.355469 199.757812 C 254.644531 199.542969 253.925781 199.363281 253.195312 199.21875 C 252.46875 199.074219 251.734375 198.96875 250.996094 198.894531 C 250.257812 198.820312 249.519531 198.785156 248.777344 198.785156 C 248.035156 198.785156 247.296875 198.820312 246.558594 198.894531 C 245.820312 198.96875 245.085938 199.074219 244.359375 199.21875 C 243.632812 199.363281 242.914062 199.542969 242.203125 199.757812 C 241.492188 199.96875 240.792969 200.21875 240.109375 200.5 C 239.421875 200.785156 238.75 201.097656 238.097656 201.445312 C 237.441406 201.796875 236.804688 202.175781 236.1875 202.585938 C 235.570312 202.996094 234.972656 203.433594 234.398438 203.902344 C 233.824219 204.371094 233.273438 204.867188 232.746094 205.390625 L 225.921875 212.214844 C 225.4375 212.679688 224.929688 213.121094 224.402344 213.539062 C 223.875 213.960938 223.328125 214.351562 222.761719 214.71875 C 222.199219 215.082031 221.617188 215.421875 221.019531 215.730469 C 220.421875 216.042969 219.808594 216.324219 219.183594 216.574219 C 218.5625 216.828125 217.925781 217.046875 217.28125 217.238281 C 216.632812 217.429688 215.980469 217.589844 215.320312 217.71875 C 214.660156 217.84375 213.992188 217.941406 213.324219 218.007812 C 212.652344 218.070312 211.980469 218.101562 211.308594 218.101562 C 210.632812 218.101562 209.960938 218.070312 209.292969 218.007812 C 208.621094 217.941406 207.957031 217.84375 207.292969 217.71875 C 206.632812 217.589844 205.980469 217.429688 205.335938 217.238281 C 204.6875 217.046875 204.054688 216.828125 203.429688 216.574219 C 202.804688 216.324219 202.195312 216.042969 201.597656 215.730469 C 201 215.421875 200.417969 215.082031 199.851562 214.71875 C 199.285156 214.351562 198.738281 213.960938 198.210938 213.539062 C 197.683594 213.121094 197.179688 212.679688 196.691406 212.214844 L 147.113281 162.632812 C 146.636719 162.15625 146.179688 161.65625 145.75 161.132812 C 145.320312 160.609375 144.917969 160.066406 144.542969 159.503906 C 144.164062 158.941406 143.816406 158.359375 143.5 157.765625 C 143.179688 157.167969 142.890625 156.554688 142.628906 155.929688 C 142.371094 155.304688 142.144531 154.667969 141.945312 154.019531 C 141.75 153.375 141.585938 152.71875 141.453125 152.054688 C 141.320312 151.390625 141.222656 150.71875 141.15625 150.046875 C 141.089844 149.371094 141.054688 148.699219 141.054688 148.019531 C 141.054688 147.34375 141.089844 146.667969 141.15625 145.996094 C 141.222656 145.320312 141.320312 144.652344 141.453125 143.988281 C 141.585938 143.324219 141.75 142.667969 141.945312 142.019531 C 142.144531 141.371094 142.371094 140.734375 142.628906 140.109375 C 142.890625 139.484375 143.179688 138.875 143.5 138.277344 C 143.816406 137.679688 144.164062 137.101562 144.542969 136.539062 C 144.917969 135.976562 145.320312 135.433594 145.75 134.910156 C 146.179688 134.386719 146.636719 133.886719 147.113281 133.40625 L 153.9375 126.582031 C 154.460938 126.054688 154.957031 125.503906 155.425781 124.929688 C 155.894531 124.355469 156.332031 123.757812 156.742188 123.140625 C 157.152344 122.523438 157.53125 121.886719 157.878906 121.230469 C 158.230469 120.574219 158.542969 119.90625 158.828125 119.21875 C 159.109375 118.535156 159.355469 117.835938 159.570312 117.125 C 159.785156 116.414062 159.964844 115.695312 160.109375 114.96875 C 160.253906 114.242188 160.359375 113.507812 160.433594 112.769531 C 160.503906 112.03125 160.542969 111.292969 160.542969 110.550781 C 160.542969 109.808594 160.503906 109.066406 160.433594 108.328125 C 160.359375 107.589844 160.253906 106.859375 160.109375 106.132812 C 159.964844 105.402344 159.785156 104.683594 159.570312 103.972656 C 159.355469 103.265625 159.109375 102.566406 158.828125 101.878906 C 158.542969 101.195312 158.230469 100.523438 157.878906 99.867188 C 157.53125 99.214844 157.152344 98.578125 156.742188 97.960938 C 156.332031 97.339844 155.894531 96.746094 155.425781 96.167969 C 154.957031 95.59375 154.460938 95.042969 153.9375 94.515625 L 132.320312 72.898438 C 131.785156 72.386719 131.230469 71.902344 130.652344 71.445312 C 130.070312 70.988281 129.472656 70.5625 128.851562 70.160156 C 128.230469 69.761719 127.59375 69.390625 126.9375 69.050781 C 126.28125 68.714844 125.609375 68.40625 124.925781 68.132812 C 124.238281 67.855469 123.542969 67.613281 122.835938 67.40625 C 122.128906 67.199219 121.410156 67.023438 120.6875 66.882812 C 119.960938 66.742188 119.230469 66.636719 118.496094 66.566406 C 117.761719 66.496094 117.023438 66.460938 116.285156 66.460938 C 115.546875 66.460938 114.8125 66.496094 114.078125 66.566406 C 113.34375 66.636719 112.613281 66.742188 111.886719 66.882812 C 111.164062 67.023438 110.445312 67.199219 109.738281 67.40625 C 109.03125 67.613281 108.332031 67.855469 107.648438 68.132812 C 106.964844 68.40625 106.292969 68.714844 105.636719 69.050781 C 104.980469 69.390625 104.34375 69.761719 103.722656 70.160156 C 103.101562 70.5625 102.503906 70.988281 101.921875 71.445312 C 101.34375 71.902344 100.785156 72.386719 100.253906 72.898438 L 86.789062 86.363281 L 86.242188 87.027344 L 86.242188 87.332031 C 85.449219 88.144531 84.675781 88.976562 83.925781 89.828125 C 83.171875 90.679688 82.441406 91.546875 81.730469 92.433594 C 81.019531 93.320312 80.332031 94.222656 79.664062 95.144531 C 78.996094 96.0625 78.351562 97 77.730469 97.953125 C 77.109375 98.902344 76.511719 99.871094 75.9375 100.851562 C 75.363281 101.832031 74.816406 102.824219 74.289062 103.832031 C 73.765625 104.839844 73.261719 105.859375 72.785156 106.890625 C 72.3125 107.921875 71.859375 108.964844 71.433594 110.019531 C 71.007812 111.070312 70.609375 112.136719 70.234375 113.207031 C 69.863281 114.28125 69.515625 115.363281 69.195312 116.453125 C 68.875 117.542969 68.578125 118.640625 68.3125 119.746094 C 68.042969 120.847656 67.804688 121.957031 67.589844 123.074219 C 67.375 124.191406 67.191406 125.3125 67.03125 126.4375 C 66.871094 127.5625 66.742188 128.691406 66.636719 129.820312 C 66.53125 130.953125 66.457031 132.085938 66.40625 133.222656 C 66.359375 134.355469 66.335938 135.492188 66.34375 136.628906 C 66.347656 137.765625 66.382812 138.898438 66.445312 140.035156 C 66.503906 141.167969 66.59375 142.300781 66.710938 143.433594 C 66.828125 144.5625 66.972656 145.6875 67.144531 146.8125 C 67.316406 147.933594 67.511719 149.054688 67.738281 150.167969 C 67.964844 151.28125 68.21875 152.386719 68.496094 153.488281 C 68.777344 154.589844 69.085938 155.683594 69.417969 156.769531 C 69.75 157.855469 70.109375 158.933594 70.496094 160.003906 C 70.878906 161.074219 71.292969 162.132812 71.726562 163.179688 C 72.164062 164.230469 72.628906 165.265625 73.113281 166.292969 C 73.601562 167.320312 74.113281 168.332031 74.652344 169.335938 C 75.1875 170.335938 75.75 171.324219 76.335938 172.296875 C 76.917969 173.273438 77.527344 174.230469 78.160156 175.175781 C 78.789062 176.121094 79.445312 177.050781 80.121094 177.960938 C 80.796875 178.875 81.496094 179.769531 82.214844 180.648438 C 82.9375 181.527344 83.679688 182.390625 84.441406 183.230469 C 85.203125 184.074219 85.984375 184.898438 86.789062 185.703125 L 173.625 272.539062 C 174.4375 273.351562 175.269531 274.140625 176.117188 274.90625 C 176.96875 275.675781 177.835938 276.425781 178.722656 277.148438 C 179.613281 277.875 180.515625 278.582031 181.4375 279.261719 C 182.359375 279.945312 183.296875 280.601562 184.25 281.238281 C 185.203125 281.875 186.171875 282.488281 187.15625 283.074219 C 188.140625 283.664062 189.136719 284.226562 190.148438 284.765625 C 191.160156 285.304688 192.183594 285.820312 193.222656 286.308594 C 194.257812 286.800781 195.304688 287.261719 196.367188 287.699219 C 197.425781 288.136719 198.496094 288.550781 199.574219 288.9375 C 200.652344 289.320312 201.742188 289.679688 202.839844 290.011719 C 203.9375 290.34375 205.042969 290.648438 206.152344 290.929688 C 207.265625 291.207031 208.382812 291.457031 209.507812 291.679688 C 210.632812 291.902344 211.761719 292.097656 212.894531 292.265625 C 214.03125 292.433594 215.167969 292.574219 216.308594 292.6875 C 217.449219 292.796875 218.589844 292.882812 219.738281 292.9375 C 220.882812 292.996094 222.027344 293.023438 223.171875 293.023438 C 224.320312 293.023438 225.464844 292.996094 226.609375 292.9375 C 227.753906 292.882812 228.898438 292.796875 230.039062 292.6875 C 231.179688 292.574219 232.316406 292.433594 233.453125 292.265625 C 234.585938 292.097656 235.714844 291.902344 236.839844 291.679688 C 237.964844 291.457031 239.082031 291.207031 240.195312 290.929688 C 241.304688 290.648438 242.410156 290.34375 243.507812 290.011719 C 244.605469 289.679688 245.691406 289.320312 246.773438 288.9375 C 247.851562 288.550781 248.921875 288.136719 249.980469 287.699219 C 251.039062 287.261719 252.089844 286.800781 253.125 286.308594 C 254.160156 285.820312 255.1875 285.304688 256.195312 284.765625 C 257.207031 284.226562 258.207031 283.664062 259.191406 283.074219 C 260.175781 282.488281 261.144531 281.875 262.097656 281.238281 C 263.050781 280.601562 263.988281 279.945312 264.910156 279.261719 C 265.832031 278.582031 266.734375 277.875 267.621094 277.148438 C 268.507812 276.425781 269.378906 275.675781 270.230469 274.90625 C 271.078125 274.140625 271.910156 273.351562 272.722656 272.539062 L 286.1875 259.074219 C 286.710938 258.546875 287.207031 257.996094 287.675781 257.421875 C 288.144531 256.847656 288.582031 256.25 288.992188 255.632812 C 289.402344 255.015625 289.78125 254.378906 290.128906 253.722656 C 290.476562 253.066406 290.792969 252.398438 291.074219 251.710938 C 291.359375 251.023438 291.605469 250.328125 291.820312 249.617188 C 292.035156 248.90625 292.214844 248.1875 292.359375 247.460938 C 292.503906 246.730469 292.609375 246 292.683594 245.261719 C 292.753906 244.523438 292.792969 243.78125 292.792969 243.042969 C 292.792969 242.300781 292.753906 241.558594 292.683594 240.820312 C 292.609375 240.082031 292.503906 239.351562 292.359375 238.621094 C 292.214844 237.894531 292.035156 237.175781 291.820312 236.464844 C 291.605469 235.753906 291.359375 235.058594 291.074219 234.371094 C 290.792969 233.683594 290.476562 233.015625 290.128906 232.359375 C 289.78125 231.703125 289.402344 231.066406 288.992188 230.449219 C 288.582031 229.832031 288.144531 229.234375 287.675781 228.660156 C 287.207031 228.085938 286.710938 227.535156 286.1875 227.007812 Z M 108.527344 81.171875 C 109.03125 80.65625 109.585938 80.195312 110.183594 79.789062 C 110.78125 79.382812 111.414062 79.039062 112.078125 78.761719 C 112.746094 78.480469 113.433594 78.269531 114.140625 78.128906 C 114.847656 77.984375 115.5625 77.914062 116.285156 77.914062 C 117.007812 77.914062 117.726562 77.984375 118.433594 78.128906 C 119.140625 78.269531 119.828125 78.480469 120.496094 78.761719 C 121.160156 79.039062 121.792969 79.382812 122.390625 79.789062 C 122.988281 80.195312 123.539062 80.65625 124.046875 81.171875 L 145.664062 102.789062 C 146.175781 103.300781 146.628906 103.855469 147.027344 104.453125 C 147.425781 105.054688 147.765625 105.6875 148.039062 106.351562 C 148.316406 107.015625 148.523438 107.703125 148.664062 108.410156 C 148.804688 109.117188 148.871094 109.828125 148.871094 110.550781 C 148.871094 111.269531 148.804688 111.984375 148.664062 112.691406 C 148.523438 113.394531 148.316406 114.082031 148.039062 114.75 C 147.765625 115.414062 147.425781 116.046875 147.027344 116.644531 C 146.628906 117.246094 146.175781 117.800781 145.664062 118.308594 L 138.839844 125.316406 C 137.785156 126.464844 136.800781 127.671875 135.882812 128.9375 L 98.382812 91.4375 Z M 182.078125 264.207031 L 95.121094 177.25 C 93.871094 175.996094 92.683594 174.691406 91.550781 173.332031 C 90.421875 171.972656 89.355469 170.566406 88.351562 169.109375 C 87.347656 167.65625 86.414062 166.15625 85.546875 164.617188 C 84.679688 163.074219 83.886719 161.5 83.160156 159.886719 C 82.4375 158.273438 81.789062 156.632812 81.214844 154.960938 C 80.636719 153.289062 80.140625 151.59375 79.71875 149.875 C 79.296875 148.160156 78.957031 146.425781 78.691406 144.679688 C 78.429688 142.929688 78.242188 141.175781 78.140625 139.410156 C 78.035156 137.644531 78.011719 135.878906 78.066406 134.113281 C 78.121094 132.347656 78.257812 130.585938 78.472656 128.832031 C 78.6875 127.078125 78.980469 125.335938 79.355469 123.605469 C 79.726562 121.878906 80.179688 120.171875 80.707031 118.484375 C 81.234375 116.796875 81.839844 115.136719 82.515625 113.503906 C 83.195312 111.875 83.949219 110.277344 84.769531 108.710938 C 85.59375 107.148438 86.488281 105.625 87.449219 104.140625 C 88.410156 102.65625 89.4375 101.222656 90.53125 99.832031 L 130.628906 139.929688 C 130.269531 141.28125 129.996094 142.652344 129.816406 144.042969 C 129.632812 145.429688 129.542969 146.824219 129.542969 148.226562 C 129.542969 149.625 129.636719 151.019531 129.816406 152.410156 C 130 153.796875 130.273438 155.167969 130.632812 156.523438 C 130.996094 157.875 131.441406 159.199219 131.976562 160.492188 C 132.511719 161.789062 133.125 163.042969 133.824219 164.257812 C 134.523438 165.472656 135.296875 166.632812 136.144531 167.746094 C 136.996094 168.859375 137.914062 169.914062 138.902344 170.90625 L 188.480469 220.484375 C 189.980469 221.992188 191.613281 223.339844 193.378906 224.519531 C 195.144531 225.703125 197.011719 226.703125 198.976562 227.515625 C 200.941406 228.332031 202.964844 228.941406 205.050781 229.355469 C 207.136719 229.769531 209.242188 229.972656 211.367188 229.96875 C 214.113281 229.925781 216.808594 229.542969 219.460938 228.820312 L 259.558594 268.855469 C 258.164062 269.949219 256.726562 270.976562 255.242188 271.941406 C 253.757812 272.902344 252.234375 273.796875 250.667969 274.621094 C 249.101562 275.445312 247.5 276.199219 245.867188 276.875 C 244.234375 277.554688 242.570312 278.160156 240.882812 278.6875 C 239.195312 279.214844 237.484375 279.667969 235.753906 280.039062 C 234.023438 280.410156 232.28125 280.707031 230.527344 280.921875 C 228.769531 281.136719 227.007812 281.269531 225.238281 281.324219 C 223.46875 281.378906 221.703125 281.351562 219.933594 281.246094 C 218.167969 281.140625 216.410156 280.953125 214.660156 280.6875 C 212.910156 280.421875 211.179688 280.078125 209.460938 279.65625 C 207.742188 279.234375 206.046875 278.734375 204.375 278.15625 C 202.699219 277.578125 201.058594 276.925781 199.445312 276.199219 C 197.832031 275.472656 196.253906 274.675781 194.710938 273.808594 C 193.171875 272.9375 191.671875 272 190.214844 270.992188 C 188.761719 269.988281 187.351562 268.917969 185.992188 267.785156 C 184.632812 266.652344 183.328125 265.457031 182.078125 264.207031 Z M 278.15625 250.742188 L 268.070312 260.886719 L 230.570312 223.386719 C 231.835938 222.46875 233.042969 221.480469 234.195312 220.425781 L 241.019531 213.601562 C 241.527344 213.09375 242.082031 212.640625 242.683594 212.238281 C 243.28125 211.839844 243.914062 211.503906 244.578125 211.226562 C 245.246094 210.953125 245.929688 210.746094 246.636719 210.605469 C 247.34375 210.464844 248.058594 210.394531 248.777344 210.394531 C 249.5 210.394531 250.210938 210.464844 250.917969 210.605469 C 251.625 210.746094 252.3125 210.953125 252.976562 211.226562 C 253.640625 211.503906 254.273438 211.839844 254.875 212.238281 C 255.472656 212.640625 256.027344 213.09375 256.539062 213.601562 L 278.15625 235.222656 C 278.667969 235.730469 279.128906 236.289062 279.53125 236.886719 C 279.933594 237.488281 280.273438 238.125 280.550781 238.792969 C 280.832031 239.460938 281.039062 240.152344 281.183594 240.859375 C 281.324219 241.570312 281.394531 242.285156 281.394531 243.011719 C 281.394531 243.734375 281.324219 244.453125 281.183594 245.160156 C 281.039062 245.871094 280.832031 246.558594 280.550781 247.230469 C 280.273438 247.898438 279.933594 248.53125 279.53125 249.132812 C 279.128906 249.734375 278.667969 250.289062 278.15625 250.800781 Z M 278.15625 250.742188 " fill-opacity="1" fill-rule="nonzero"/><g clip-path="url(#fe59b82fd2)"><path fill="#000000" d="M 179.664062 4.539062 C 176.796875 4.539062 173.933594 4.609375 171.070312 4.75 C 168.207031 4.890625 165.351562 5.101562 162.5 5.382812 C 159.644531 5.664062 156.804688 6.015625 153.96875 6.433594 C 151.132812 6.855469 148.308594 7.34375 145.5 7.902344 C 142.6875 8.464844 139.890625 9.089844 137.113281 9.789062 C 134.332031 10.484375 131.570312 11.246094 128.828125 12.078125 C 126.085938 12.910156 123.363281 13.808594 120.667969 14.777344 C 117.96875 15.742188 115.292969 16.773438 112.644531 17.871094 C 110 18.964844 107.378906 20.128906 104.789062 21.351562 C 102.199219 22.578125 99.636719 23.867188 97.109375 25.21875 C 94.582031 26.570312 92.089844 27.980469 89.632812 29.453125 C 87.171875 30.925781 84.753906 32.460938 82.371094 34.054688 C 79.988281 35.644531 77.644531 37.292969 75.34375 39.003906 C 73.039062 40.710938 70.78125 42.472656 68.566406 44.289062 C 66.351562 46.109375 64.179688 47.980469 62.058594 49.90625 C 59.933594 51.828125 57.859375 53.804688 55.832031 55.832031 C 53.804688 57.859375 51.828125 59.933594 49.90625 62.058594 C 47.980469 64.179688 46.109375 66.351562 44.289062 68.566406 C 42.472656 70.78125 40.710938 73.039062 39.003906 75.34375 C 37.292969 77.644531 35.644531 79.988281 34.054688 82.371094 C 32.460938 84.753906 30.925781 87.171875 29.453125 89.632812 C 27.980469 92.089844 26.570312 94.582031 25.21875 97.109375 C 23.867188 99.636719 22.578125 102.199219 21.351562 104.789062 C 20.128906 107.378906 18.964844 110 17.871094 112.644531 C 16.773438 115.292969 15.742188 117.96875 14.777344 120.667969 C 13.808594 123.363281 12.910156 126.085938 12.078125 128.828125 C 11.246094 131.570312 10.484375 134.332031 9.789062 137.113281 C 9.089844 139.890625 8.464844 142.6875 7.902344 145.5 C 7.34375 148.308594 6.855469 151.132812 6.433594 153.96875 C 6.015625 156.804688 5.664062 159.644531 5.382812 162.5 C 5.101562 165.351562 4.890625 168.207031 4.75 171.070312 C 4.609375 173.933594 4.539062 176.796875 4.539062 179.664062 C 4.539062 182.53125 4.609375 185.394531 4.75 188.257812 C 4.890625 191.121094 5.101562 193.976562 5.382812 196.828125 C 5.664062 199.679688 6.015625 202.523438 6.433594 205.359375 C 6.855469 208.195312 7.34375 211.019531 7.902344 213.828125 C 8.464844 216.640625 9.089844 219.4375 9.789062 222.214844 C 10.484375 224.996094 11.246094 227.757812 12.078125 230.5 C 12.910156 233.242188 13.808594 235.964844 14.777344 238.660156 C 15.742188 241.359375 16.773438 244.035156 17.871094 246.679688 C 18.964844 249.328125 20.128906 251.949219 21.351562 254.539062 C 22.578125 257.128906 23.867188 259.691406 25.21875 262.21875 C 26.570312 264.746094 27.980469 267.238281 29.453125 269.695312 C 30.925781 272.15625 32.460938 274.574219 34.054688 276.957031 C 35.644531 279.339844 37.292969 281.683594 39.003906 283.984375 C 40.710938 286.289062 42.472656 288.546875 44.289062 290.761719 C 46.109375 292.976562 47.980469 295.148438 49.90625 297.269531 C 51.828125 299.394531 53.804688 301.46875 55.832031 303.496094 C 57.859375 305.523438 59.933594 307.5 62.058594 309.421875 C 64.179688 311.347656 66.351562 313.21875 68.566406 315.039062 C 70.78125 316.855469 73.039062 318.617188 75.34375 320.324219 C 77.644531 322.03125 79.988281 323.683594 82.371094 325.273438 C 84.753906 326.867188 87.171875 328.398438 89.632812 329.875 C 92.089844 331.347656 94.582031 332.757812 97.109375 334.109375 C 99.636719 335.460938 102.199219 336.75 104.789062 337.976562 C 107.378906 339.199219 110 340.363281 112.644531 341.457031 C 115.292969 342.554688 117.96875 343.585938 120.667969 344.550781 C 123.363281 345.515625 126.085938 346.417969 128.828125 347.25 C 131.570312 348.078125 134.332031 348.84375 137.113281 349.539062 C 139.890625 350.238281 142.6875 350.863281 145.5 351.425781 C 148.308594 351.984375 151.132812 352.472656 153.96875 352.894531 C 156.804688 353.3125 159.644531 353.664062 162.5 353.945312 C 165.351562 354.226562 168.207031 354.4375 171.070312 354.578125 C 173.933594 354.71875 176.796875 354.789062 179.664062 354.789062 C 182.53125 354.789062 185.394531 354.71875 188.257812 354.578125 C 191.121094 354.4375 193.976562 354.226562 196.828125 353.945312 C 199.679688 353.664062 202.523438 353.3125 205.359375 352.894531 C 208.195312 352.472656 211.019531 351.984375 213.828125 351.425781 C 216.640625 350.863281 219.4375 350.238281 222.214844 349.539062 C 224.996094 348.84375 227.757812 348.078125 230.5 347.246094 C 233.242188 346.417969 235.964844 345.515625 238.660156 344.550781 C 241.359375 343.585938 244.035156 342.554688 246.679688 341.457031 C 249.328125 340.363281 251.949219 339.199219 254.539062 337.976562 C 257.128906 336.75 259.691406 335.460938 262.21875 334.109375 C 264.746094 332.757812 267.238281 331.347656 269.695312 329.875 C 272.15625 328.398438 274.574219 326.867188 276.957031 325.273438 C 279.339844 323.683594 281.683594 322.03125 283.984375 320.324219 C 286.289062 318.617188 288.546875 316.855469 290.761719 315.039062 C 292.976562 313.21875 295.148438 311.347656 297.269531 309.421875 C 299.394531 307.5 301.46875 305.523438 303.496094 303.496094 C 305.523438 301.46875 307.5 299.394531 309.421875 297.269531 C 311.347656 295.148438 313.21875 292.976562 315.039062 290.761719 C 316.855469 288.546875 318.617188 286.289062 320.324219 283.984375 C 322.03125 281.683594 323.683594 279.339844 325.273438 276.957031 C 326.867188 274.574219 328.398438 272.15625 329.875 269.695312 C 331.347656 267.238281 332.757812 264.746094 334.109375 262.21875 C 335.460938 259.691406 336.75 257.128906 337.976562 254.539062 C 339.199219 251.949219 340.363281 249.328125 341.457031 246.679688 C 342.554688 244.035156 343.585938 241.359375 344.550781 238.660156 C 345.515625 235.964844 346.417969 233.242188 347.25 230.5 C 348.078125 227.757812 348.84375 224.996094 349.539062 222.214844 C 350.238281 219.4375 350.863281 216.640625 351.425781 213.828125 C 351.984375 211.019531 352.472656 208.195312 352.894531 205.359375 C 353.3125 202.523438 353.664062 199.679688 353.945312 196.828125 C 354.226562 193.976562 354.4375 191.121094 354.578125 188.257812 C 354.71875 185.394531 354.789062 182.53125 354.789062 179.664062 C 354.789062 176.796875 354.71875 173.933594 354.578125 171.070312 C 354.4375 168.207031 354.226562 165.351562 353.945312 162.5 C 353.664062 159.644531 353.3125 156.804688 352.894531 153.96875 C 352.472656 151.132812 351.984375 148.308594 351.425781 145.5 C 350.863281 142.6875 350.238281 139.890625 349.539062 137.113281 C 348.84375 134.332031 348.078125 131.570312 347.246094 128.828125 C 346.417969 126.085938 345.515625 123.363281 344.550781 120.667969 C 343.585938 117.96875 342.554688 115.292969 341.457031 112.644531 C 340.363281 110 339.199219 107.378906 337.976562 104.789062 C 336.75 102.199219 335.460938 99.636719 334.109375 97.109375 C 332.757812 94.582031 331.347656 92.089844 329.875 89.632812 C 328.398438 87.171875 326.867188 84.753906 325.273438 82.371094 C 323.683594 79.988281 322.03125 77.644531 320.324219 75.34375 C 318.617188 73.039062 316.855469 70.78125 315.039062 68.566406 C 313.21875 66.351562 311.347656 64.179688 309.421875 62.058594 C 307.5 59.933594 305.523438 57.859375 303.496094 55.832031 C 301.46875 53.804688 299.394531 51.828125 297.269531 49.90625 C 295.148438 47.980469 292.976562 46.109375 290.761719 44.289062 C 288.546875 42.472656 286.289062 40.710938 283.984375 39.003906 C 281.683594 37.292969 279.339844 35.644531 276.957031 34.054688 C 274.574219 32.460938 272.15625 30.925781 269.695312 29.453125 C 267.238281 27.980469 264.746094 26.570312 262.21875 25.21875 C 259.691406 23.867188 257.128906 22.578125 254.539062 21.351562 C 251.949219 20.128906 249.328125 18.964844 246.679688 17.871094 C 244.035156 16.773438 241.359375 15.742188 238.660156 14.777344 C 235.964844 13.808594 233.242188 12.910156 230.5 12.078125 C 227.757812 11.246094 224.996094 10.484375 222.214844 9.789062 C 219.4375 9.089844 216.640625 8.464844 213.828125 7.902344 C 211.019531 7.34375 208.195312 6.855469 205.359375 6.433594 C 202.523438 6.015625 199.679688 5.664062 196.828125 5.382812 C 193.976562 5.101562 191.121094 4.890625 188.257812 4.75 C 185.394531 4.609375 182.53125 4.539062 179.664062 4.539062 Z M 179.664062 343.132812 C 176.988281 343.132812 174.316406 343.070312 171.644531 342.9375 C 168.972656 342.804688 166.304688 342.609375 163.640625 342.347656 C 160.980469 342.085938 158.324219 341.757812 155.679688 341.363281 C 153.03125 340.972656 150.394531 340.515625 147.773438 339.992188 C 145.148438 339.472656 142.539062 338.886719 139.945312 338.234375 C 137.347656 337.585938 134.769531 336.871094 132.210938 336.09375 C 129.652344 335.320312 127.113281 334.480469 124.59375 333.578125 C 122.074219 332.675781 119.578125 331.714844 117.105469 330.691406 C 114.636719 329.667969 112.191406 328.582031 109.769531 327.4375 C 107.351562 326.296875 104.964844 325.09375 102.605469 323.832031 C 100.246094 322.570312 97.917969 321.253906 95.625 319.875 C 93.328125 318.5 91.070312 317.070312 88.84375 315.585938 C 86.621094 314.097656 84.433594 312.558594 82.285156 310.964844 C 80.136719 309.371094 78.027344 307.726562 75.960938 306.027344 C 73.890625 304.332031 71.867188 302.582031 69.882812 300.789062 C 67.902344 298.992188 65.964844 297.144531 64.074219 295.253906 C 62.179688 293.363281 60.335938 291.425781 58.539062 289.445312 C 56.742188 287.460938 54.996094 285.4375 53.300781 283.367188 C 51.601562 281.300781 49.957031 279.191406 48.363281 277.042969 C 46.769531 274.894531 45.230469 272.707031 43.742188 270.484375 C 42.257812 268.257812 40.828125 266 39.449219 263.703125 C 38.074219 261.410156 36.757812 259.082031 35.496094 256.722656 C 34.234375 254.363281 33.03125 251.976562 31.890625 249.554688 C 30.746094 247.136719 29.660156 244.691406 28.636719 242.222656 C 27.613281 239.75 26.652344 237.253906 25.75 234.734375 C 24.847656 232.214844 24.007812 229.675781 23.234375 227.117188 C 22.457031 224.554688 21.742188 221.980469 21.09375 219.382812 C 20.441406 216.789062 19.855469 214.179688 19.335938 211.554688 C 18.8125 208.929688 18.355469 206.296875 17.964844 203.648438 C 17.570312 201.003906 17.242188 198.347656 16.980469 195.6875 C 16.71875 193.023438 16.523438 190.355469 16.390625 187.683594 C 16.257812 185.011719 16.195312 182.339844 16.195312 179.664062 C 16.195312 176.988281 16.257812 174.316406 16.390625 171.644531 C 16.523438 168.972656 16.71875 166.304688 16.980469 163.640625 C 17.242188 160.980469 17.570312 158.324219 17.964844 155.679688 C 18.355469 153.03125 18.8125 150.394531 19.335938 147.773438 C 19.855469 145.148438 20.441406 142.539062 21.09375 139.945312 C 21.742188 137.347656 22.457031 134.769531 23.234375 132.210938 C 24.007812 129.652344 24.847656 127.113281 25.75 124.59375 C 26.652344 122.074219 27.613281 119.578125 28.636719 117.105469 C 29.660156 114.636719 30.746094 112.191406 31.890625 109.769531 C 33.03125 107.351562 34.234375 104.964844 35.496094 102.605469 C 36.757812 100.246094 38.074219 97.917969 39.449219 95.625 C 40.828125 93.328125 42.257812 91.070312 43.742188 88.84375 C 45.230469 86.621094 46.769531 84.433594 48.363281 82.285156 C 49.957031 80.136719 51.601562 78.027344 53.300781 75.960938 C 54.996094 73.890625 56.742188 71.867188 58.539062 69.882812 C 60.335938 67.902344 62.179688 65.964844 64.074219 64.074219 C 65.964844 62.179688 67.902344 60.335938 69.882812 58.539062 C 71.867188 56.742188 73.890625 54.996094 75.960938 53.300781 C 78.027344 51.601562 80.136719 49.957031 82.285156 48.363281 C 84.433594 46.769531 86.621094 45.230469 88.84375 43.742188 C 91.070312 42.257812 93.328125 40.828125 95.625 39.449219 C 97.917969 38.074219 100.246094 36.757812 102.605469 35.496094 C 104.964844 34.234375 107.351562 33.03125 109.769531 31.890625 C 112.191406 30.746094 114.636719 29.660156 117.105469 28.636719 C 119.578125 27.613281 122.074219 26.652344 124.59375 25.75 C 127.113281 24.847656 129.652344 24.007812 132.210938 23.234375 C 134.769531 22.457031 137.347656 21.742188 139.945312 21.09375 C 142.539062 20.441406 145.148438 19.855469 147.773438 19.335938 C 150.394531 18.8125 153.03125 18.355469 155.679688 17.964844 C 158.324219 17.570312 160.980469 17.242188 163.640625 16.980469 C 166.304688 16.71875 168.972656 16.523438 171.644531 16.390625 C 174.316406 16.257812 176.988281 16.195312 179.664062 16.195312 C 182.339844 16.195312 185.011719 16.257812 187.683594 16.390625 C 190.355469 16.523438 193.023438 16.71875 195.6875 16.980469 C 198.347656 17.242188 201.003906 17.570312 203.648438 17.964844 C 206.296875 18.355469 208.929688 18.8125 211.554688 19.335938 C 214.179688 19.855469 216.789062 20.441406 219.382812 21.09375 C 221.980469 21.742188 224.558594 22.457031 227.117188 23.234375 C 229.675781 24.007812 232.214844 24.847656 234.734375 25.75 C 237.253906 26.652344 239.75 27.613281 242.222656 28.636719 C 244.691406 29.660156 247.136719 30.746094 249.554688 31.890625 C 251.976562 33.03125 254.363281 34.234375 256.722656 35.496094 C 259.082031 36.757812 261.410156 38.074219 263.703125 39.449219 C 266 40.828125 268.257812 42.257812 270.484375 43.742188 C 272.707031 45.230469 274.894531 46.769531 277.042969 48.363281 C 279.191406 49.957031 281.300781 51.601562 283.367188 53.300781 C 285.4375 54.996094 287.460938 56.742188 289.445312 58.539062 C 291.425781 60.335938 293.363281 62.179688 295.253906 64.074219 C 297.144531 65.964844 298.992188 67.902344 300.789062 69.882812 C 302.582031 71.867188 304.332031 73.890625 306.027344 75.960938 C 307.726562 78.027344 309.371094 80.136719 310.964844 82.285156 C 312.558594 84.433594 314.097656 86.621094 315.585938 88.84375 C 317.070312 91.070312 318.5 93.328125 319.875 95.625 C 321.253906 97.917969 322.570312 100.246094 323.832031 102.605469 C 325.09375 104.964844 326.296875 107.351562 327.4375 109.769531 C 328.582031 112.191406 329.667969 114.636719 330.691406 117.105469 C 331.714844 119.578125 332.675781 122.074219 333.578125 124.59375 C 334.480469 127.113281 335.320312 129.652344 336.09375 132.210938 C 336.871094 134.769531 337.585938 137.347656 338.234375 139.945312 C 338.886719 142.539062 339.472656 145.148438 339.992188 147.773438 C 340.515625 150.394531 340.972656 153.03125 341.363281 155.679688 C 341.757812 158.324219 342.085938 160.980469 342.347656 163.640625 C 342.609375 166.304688 342.804688 168.972656 342.9375 171.644531 C 343.070312 174.316406 343.132812 176.988281 343.132812 179.664062 C 343.128906 182.339844 343.0625 185.011719 342.925781 187.679688 C 342.789062 190.351562 342.589844 193.019531 342.324219 195.679688 C 342.058594 198.339844 341.730469 200.992188 341.332031 203.636719 C 340.9375 206.28125 340.476562 208.917969 339.953125 211.539062 C 339.429688 214.160156 338.839844 216.769531 338.1875 219.363281 C 337.535156 221.957031 336.820312 224.53125 336.039062 227.089844 C 335.261719 229.648438 334.421875 232.1875 333.519531 234.703125 C 332.617188 237.21875 331.652344 239.714844 330.625 242.183594 C 329.601562 244.652344 328.515625 247.097656 327.371094 249.515625 C 326.226562 251.929688 325.023438 254.316406 323.761719 256.675781 C 322.5 259.035156 321.179688 261.359375 319.804688 263.652344 C 318.429688 265.945312 316.996094 268.203125 315.511719 270.425781 C 314.023438 272.648438 312.484375 274.835938 310.890625 276.980469 C 309.296875 279.128906 307.652344 281.238281 305.953125 283.304688 C 304.257812 285.371094 302.511719 287.394531 300.714844 289.375 C 298.917969 291.355469 297.074219 293.292969 295.183594 295.183594 C 293.292969 297.074219 291.355469 298.917969 289.375 300.714844 C 287.394531 302.511719 285.371094 304.257812 283.304688 305.953125 C 281.238281 307.652344 279.128906 309.296875 276.980469 310.890625 C 274.835938 312.484375 272.648438 314.023438 270.425781 315.511719 C 268.203125 316.996094 265.945312 318.429688 263.652344 319.804688 C 261.359375 321.179688 259.035156 322.5 256.675781 323.761719 C 254.316406 325.023438 251.929688 326.226562 249.515625 327.371094 C 247.097656 328.515625 244.652344 329.601562 242.183594 330.625 C 239.714844 331.652344 237.21875 332.617188 234.703125 333.519531 C 232.1875 334.421875 229.648438 335.261719 227.089844 336.039062 C 224.53125 336.820312 221.957031 337.535156 219.363281 338.1875 C 216.769531 338.839844 214.160156 339.429688 211.539062 339.953125 C 208.917969 340.476562 206.28125 340.9375 203.636719 341.332031 C 200.992188 341.730469 198.339844 342.058594 195.679688 342.324219 C 193.019531 342.589844 190.351562 342.789062 187.679688 342.925781 C 185.011719 343.0625 182.339844 343.128906 179.664062 343.132812 Z M 179.664062 343.132812 " fill-opacity="1" fill-rule="nonzero"/></g><g clip-path="url(#a01e345ed2)"><g clip-path="url(#2bb29a51fe)"><path fill="#000000" d="M 261.402344 270.46875 L 269.34375 263.078125 L 273.960938 268.039062 L 266.019531 275.429688 Z M 261.402344 270.46875 " fill-opacity="1" fill-rule="nonzero"/></g></g></svg>